# xmcd
#
# Track frame offsets: 
#        150
#        11799
#        23322
#        36366
#        48814
#        58253
#        68797
#        78565
#        88600
#        99614
#        110338
#        120780
#        130987
#        142260
#        152349
#        164562
#        175764
#        186629
#        199375
#        211055
#        222986
#        234674
#        244458
#        256358
#        266369
#        277226
#        289502
#        300884
#        313199
#        324103
#
# Disc length: 4444 seconds
#
# Revision: 3
# Processed by: cddbd v1.5.2PL0 Copyright (c) Steve Scherf et al.
# Submitted via: ExactAudioCopy v1.3
#
DISCID=b2115a1e
DTITLE=Lester Flatt and Earl Scruggs - 1948-1959 volume 4
DYEAR=1995
DGENRE=Bluegrass
TTITLE0=No Doubt About It
TTITLE1=Who Will Sing For Me
TTITLE2=Give Mother My Crown
TTITLE3=Six White Horses
TTITLE4=Shuckin' The Corn
TTITLE5=I'll Take The Blame (previously unissued)
TTITLE6=Don't Let Your Deal Go Down
TTITLE7=A Hundred Years From Now
TTITLE8=Give Me The Flowers While I'm Living
TTITLE9=Is There Room For Me
TTITLE10=I'll Take The Blame
TTITLE11=Let Those Brown Eyes Smile At Me
TTITLE12=I'll Never Shed Another Tear
TTITLE13=I Won't Be Hanging Around
TTITLE14=I Don't Care Anymore
TTITLE15=Big Black Train
TTITLE16=Mama's and Daddy's Little Girl
TTITLE17=Crying Alone
TTITLE18=A Million Years In Glory
TTITLE19=Heaven
TTITLE20=Building On Sand
TTITLE21=Jesus Savior Pilot Me
TTITLE22=Crying My Hear Out Over You
TTITLE23=Ground Speed
TTITLE24=Who Knows Right From Wrong
TTITLE25=Iron Curtain
TTITLE26=Cabin On The Hill
TTITLE27=Someone You Have Forgotten
TTITLE28=Foggy Mountain Rock
TTITLE29=You Put Me On My Feet
EXTD=
EXTT0=
EXTT1=
EXTT2=
EXTT3=
EXTT4=
EXTT5=
EXTT6=
EXTT7=
EXTT8=
EXTT9=
EXTT10=
EXTT11=
EXTT12=
EXTT13=
EXTT14=
EXTT15=
EXTT16=
EXTT17=
EXTT18=
EXTT19=
EXTT20=
EXTT21=
EXTT22=
EXTT23=
EXTT24=
EXTT25=
EXTT26=
EXTT27=
EXTT28=
EXTT29=
PLAYORDER=
